{
  "accessors": [
    {
      "bufferView": 2,
      "componentType": 5126,
      "count": 17914,
      "max": [
        6.206846237182617,
        20.547582626342773,
        9.022647857666016
      ],
      "min": [
        -6.206846237182617,
        0.021051615476608276,
        -8.595244407653809
      ],
      "type": "VEC3"
    },
    {
      "bufferView": 2,
      "byteOffset": 214968,
      "componentType": 5126,
      "count": 17914,
      "max": [
        1.0,
        0.9998995065689087,
        0.9999998807907104
      ],
      "min": [
        -1.0,
        -0.9999996423721313,
        -0.9999980330467224
      ],
      "type": "VEC3"
    },
    {
      "bufferView": 1,
      "componentType": 5126,
      "count": 17914,
      "max": [
        0.9960427284240723,
        0.9959172010421753
      ],
      "min": [
        0.003293842077255249,
        0.003290235996246338
      ],
      "type": "VEC2"
    },
    {
      "bufferView": 1,
      "byteOffset": 143312,
      "componentType": 5126,
      "count": 17914,
      "max": [
        0.9960427284240723,
        0.9959172010421753
      ],
      "min": [
        0.003293842077255249,
        0.003290235996246338
      ],
      "type": "VEC2"
    },
    {
      "bufferView": 1,
      "byteOffset": 286624,
      "componentType": 5126,
      "count": 17914,
      "max": [
        0.9960427284240723,
        0.9959172010421753
      ],
      "min": [
        0.003293842077255249,
        0.003290235996246338
      ],
      "type": "VEC2"
    },
    {
      "bufferView": 0,
      "componentType": 5125,
      "count": 81426,
      "type": "SCALAR"
    }
  ],
  "asset": {
    "extras": {
      "author": "alexvladimircm (https://sketchfab.com/alexvladimircm)",
      "license": "CC-BY-4.0 (http://creativecommons.org/licenses/by/4.0/)",
      "source": "https://sketchfab.com/3d-models/carro-de-la-compra-c22286ade5ea493b890b3269e57b191f",
      "title": "Carro De La Compra"
    },
    "generator": "Sketchfab-12.78.0",
    "version": "2.0"
  },
  "bufferViews": [
    {
      "buffer": 0,
      "byteLength": 325704,
      "name": "floatBufferViews",
      "target": 34963
    },
    {
      "buffer": 0,
      "byteLength": 429936,
      "byteOffset": 325704,
      "byteStride": 8,
      "name": "floatBufferViews",
      "target": 34962
    },
    {
      "buffer": 0,
      "byteLength": 429936,
      "byteOffset": 755640,
      "byteStride": 12,
      "name": "floatBufferViews",
      "target": 34962
    }
  ],
  "buffers": [
    {
      "byteLength": 1185576,
      "uri": "scene.bin"
    }
  ],
  "extensionsRequired": [
    "KHR_materials_pbrSpecularGlossiness"
  ],
  "extensionsUsed": [
    "KHR_materials_pbrSpecularGlossiness"
  ],
  "images": [
    {
      "uri": "textures/material_diffuse.png"
    },
    {
      "uri": "textures/material_specularGlossiness.png"
    }
  ],
  "materials": [
    {
      "doubleSided": true,
      "extensions": {
        "KHR_materials_pbrSpecularGlossiness": {
          "diffuseFactor": [
            1.0,
            1.0,
            1.0,
            1.0
          ],
          "diffuseTexture": {
            "index": 0
          },
          "glossinessFactor": 1.0,
          "specularFactor": [
            1.0,
            1.0,
            1.0
          ],
          "specularGlossinessTexture": {
            "index": 1
          }
        }
      },
      "name": "material"
    }
  ],
  "meshes": [
    {
      "name": "Object_0",
      "primitives": [
        {
          "attributes": {
            "NORMAL": 1,
            "POSITION": 0,
            "TEXCOORD_0": 2,
            "TEXCOORD_1": 3,
            "TEXCOORD_2": 4
          },
          "indices": 5,
          "material": 0,
          "mode": 4
        }
      ]
    }
  ],
  "nodes": [
    {
      "children": [
        1
      ],
      "matrix": [
        1.0,
        0.0,
        0.0,
        0.0,
        0.0,
        2.220446049250313e-16,
        -1.0,
        0.0,
        0.0,
        1.0,
        2.220446049250313e-16,
        0.0,
        0.0,
        0.0,
        0.0,
        1.0
      ],
      "name": "Sketchfab_model"
    },
    {
      "children": [
        2
      ],
      "name": "root"
    },
    {
      "children": [
        3
      ],
      "matrix": [
        1.0,
        0.0,
        0.0,
        0.0,
        0.0,
        2.220446049250313e-16,
        1.0,
        0.0,
        0.0,
        -1.0,
        2.220446049250313e-16,
        0.0,
        0.0,
        0.0,
        0.0,
        1.0
      ],
      "name": "GLTF_SceneRootNode"
    },
    {
      "children": [
        4
      ],
      "name": "root_0"
    },
    {
      "children": [
        5
      ],
      "matrix": [
        0.02016465738415718,
        0.0,
        0.0,
        0.0,
        0.0,
        0.02016465738415718,
        0.0,
        0.0,
        0.0,
        0.0,
        0.02016465738415718,
        0.0,
        0.018569529056549072,
        -0.18142443895339966,
        -0.0037970244884490967,
        1.0
      ],
      "name": "node_id34_1"
    },
    {
      "mesh": 0,
      "name": "Object_5"
    }
  ],
  "samplers": [
    {
      "magFilter": 9729,
      "minFilter": 9987,
      "wrapS": 10497,
      "wrapT": 10497
    }
  ],
  "scene": 0,
  "scenes": [
    {
      "name": "Sketchfab_Scene",
      "nodes": [
        0
      ]
    }
  ],
  "textures": [
    {
      "sampler": 0,
      "source": 0
    },
    {
      "sampler": 0,
      "source": 1
    }
  ]
}
